<svg width="64" height="10" viewBox="0 0 64 10" fill="none" xmlns="http://www.w3.org/2000/svg">
<path d="M1.33244 4.29626H1.82962L5.38929 0L6.40339 0.731168L2.96304 4.73477L7 9.21385L5.98575 10L1.78985 5.30139H1.33244V9.76233H0V0.237407H1.33244V4.29626Z" fill="white"/>
<path d="M12 0H13.1824V8.8482H18V10H12V0Z" fill="white"/>
<path d="M23 0H29V1.15165H24.237V4.14593H28.1693V5.29744H24.237V8.84821H29V10H23V0Z" fill="white"/>
<path d="M35 0H38.4901C40.2056 0 41.5662 0.76782 41.5662 2.65915C41.5662 3.85756 40.7183 5.03739 39.4761 5.39321L42 9.34454L40.8564 10L38.2338 5.58034H36.321V9.75654H35V0ZM38.0563 4.45697C39.3379 4.45697 40.1858 3.7642 40.1858 2.65915C40.1858 1.7791 39.6337 1.12364 38.4506 1.12364H36.3209V4.45697H38.0563Z" fill="white"/>
<path d="M52 5.00921C52 5.78846 51.9514 10 49 10C47.6378 10 46 8.88692 46 5.00921C46 1.15019 47.6054 0 49 0C50.3459 0 52 1.11322 52 5.00921ZM47.1352 5.00921C47.1352 6.41928 47.3622 8.83112 49 8.83112C50.6378 8.83112 50.8648 6.41928 50.8648 5.00921C50.8648 3.58071 50.6378 1.16888 49 1.16888C47.3622 1.16888 47.1352 3.58071 47.1352 5.00921Z" fill="white"/>
<path d="M58.239 6.77203C58.5074 7.95948 59.1476 8.83124 60.5931 8.83124C61.7287 8.83124 62.6166 8.27476 62.6166 7.19863C62.6166 6.01119 61.5017 5.71446 60.4485 5.32483C58.8793 4.73097 57.3925 4.35989 57.3925 2.54175C57.3925 0.909139 58.8586 0 60.5518 0C62.3482 0 63.4013 0.927694 63.835 2.43042L62.5134 2.78295C62.2656 1.83683 61.708 1.16889 60.5311 1.16889C59.6432 1.16889 58.7759 1.57708 58.7759 2.44898C58.7759 3.35812 59.3952 3.61787 60.2214 3.95171L62.5134 4.86085C63.4838 5.34325 64 6.12251 64 7.12428C64 8.96098 62.5753 10 60.5929 10C58.59 10 57.3302 8.84966 57 7.12428L58.239 6.77203Z" fill="white"/>
</svg>
