<svg width="30" height="39" viewBox="0 0 30 39" fill="none" xmlns="http://www.w3.org/2000/svg">
<path d="M28.7129 7.43053L22.3904 1.06768C21.7122 0.385129 20.7928 -0.00164795 19.8358 -0.00164795H4.45524C2.45826 0.0059359 0.838074 1.63646 0.838074 3.64619V35.195C0.838074 37.2047 2.45826 38.8353 4.45524 38.8353H26.1583C28.1552 38.8353 29.7754 37.2047 29.7754 35.195V10.009C29.7754 9.04589 29.3911 8.11307 28.7129 7.43053ZM25.8644 9.71327H20.1296V3.94196L25.8644 9.71327ZM4.45524 35.195V3.64619H16.5125V11.5334C16.5125 12.542 17.3188 13.3535 18.3211 13.3535H26.1583V35.195H4.45524ZM6.86669 31.5548H23.7468V21.8474L21.9759 20.0652C21.6217 19.7088 21.049 19.7088 20.6948 20.0652L14.101 26.7011L11.1244 23.7055C10.7702 23.349 10.1975 23.349 9.84332 23.7055L6.86669 26.7011V31.5548ZM10.4839 13.3535C8.48688 13.3535 6.86669 14.984 6.86669 16.9938C6.86669 19.0035 8.48688 20.634 10.4839 20.634C12.4808 20.634 14.101 19.0035 14.101 16.9938C14.101 14.984 12.4808 13.3535 10.4839 13.3535Z" fill="#4004A3"/>
</svg>
