<?xml version="1.0" encoding="utf-8"?>
<!-- Generator: Adobe Illustrator 16.0.0, SVG Export Plug-In . SVG Version: 6.00 Build 0)  -->
<!DOCTYPE svg PUBLIC "-//W3C//DTD SVG 1.1//EN" "http://www.w3.org/Graphics/SVG/1.1/DTD/svg11.dtd">
<svg version="1.1" id="Layer_1" xmlns="http://www.w3.org/2000/svg" xmlns:xlink="http://www.w3.org/1999/xlink" x="0px" y="0px"
	 width="1006px" height="388px" viewBox="0 0 1006 388" enable-background="new 0 0 1006 388" xml:space="preserve">
<g>
	<g>
		<path fill="#FFFFFF" d="M451.393,196.48h3.819l27.347-35.903l7.793,6.11l-26.432,33.459l31.015,37.431l-7.792,6.57l-32.235-39.267
			h-3.515v37.28h-10.237v-79.6h10.237V196.48z"/>
		<path fill="#FFFFFF" d="M534.05,162.561h10.236v70.433h41.71v9.167H534.05V162.561z"/>
		<path fill="#FFFFFF" d="M623.737,162.561h49.653v9.168h-39.418v23.833h32.542v9.166h-32.542v28.265h39.418v9.167h-49.653V162.561z
			"/>
		<path fill="#FFFFFF" d="M714.187,162.561h27.042c13.293,0,23.835,6.264,23.835,21.696c0,9.777-6.57,19.403-16.196,22.305
			l19.556,32.239l-8.86,5.347l-20.32-36.058h-14.819v34.071h-10.236V162.561z M737.867,198.923c9.932,0,16.501-5.653,16.501-14.667
			c0-7.18-4.277-12.527-13.444-12.527h-16.501v27.194H737.867z"/>
		<path fill="#FFFFFF" d="M857.194,202.439c0,6.416-0.459,41.098-28.265,41.098c-12.834,0-28.265-9.167-28.265-41.098
			c0-31.78,15.124-41.252,28.265-41.252C841.609,161.187,857.194,170.354,857.194,202.439z M811.359,202.439
			c0,11.611,2.138,31.472,17.57,31.472c15.432,0,17.569-19.861,17.569-31.472c0-11.766-2.138-31.626-17.569-31.626
			C813.497,170.812,811.359,190.673,811.359,202.439z"/>
		<path fill="#FFFFFF" d="M903.949,216.953c1.986,9.777,6.721,16.958,17.416,16.958c8.404,0,14.973-4.583,14.973-13.444
			c0-9.779-8.25-12.223-16.042-15.432c-11.611-4.888-22.611-7.945-22.611-22.917c0-13.445,10.848-20.931,23.375-20.931
			c13.293,0,21.084,7.639,24.293,20.015l-9.779,2.902c-1.833-7.792-5.957-13.291-14.666-13.291c-6.57,0-12.986,3.36-12.986,10.542
			c0,7.486,4.584,9.625,10.693,12.375l16.959,7.486c7.182,3.972,11.001,10.389,11.001,18.639c0,15.126-10.542,23.682-25.209,23.682
			c-14.82,0-24.139-9.473-26.584-23.682L903.949,216.953z"/>
	</g>
</g>
<polygon opacity="0.7" fill="#45464D" points="308.145,62.412 148.622,55.292 55.741,171.314 120.823,326.371 281.941,336.125 
	373.654,205.685 "/>
<g>
	<polygon fill="#656569" points="373.654,205.685 282.781,113.532 258.881,290.31 	"/>
	<linearGradient id="SVGID_1_" gradientUnits="userSpaceOnUse" x1="117.6611" y1="201.9209" x2="282.7812" y2="201.9209">
		<stop  offset="0" style="stop-color:#A3A2A5"/>
		<stop  offset="0.2705" style="stop-color:#9F9EA0"/>
		<stop  offset="0.5607" style="stop-color:#929194"/>
		<stop  offset="0.8592" style="stop-color:#7C7C80"/>
		<stop  offset="1" style="stop-color:#707073"/>
	</linearGradient>
	<polygon fill="url(#SVGID_1_)" points="117.661,184.958 282.781,113.532 258.881,290.31 	"/>
	<linearGradient id="SVGID_2_" gradientUnits="userSpaceOnUse" x1="116.5698" y1="182.5889" x2="233.8922" y2="66.3987">
		<stop  offset="0" style="stop-color:#969598"/>
		<stop  offset="0.3396" style="stop-color:#908F92"/>
		<stop  offset="0.7917" style="stop-color:#7F7F82"/>
		<stop  offset="1" style="stop-color:#757578"/>
	</linearGradient>
	<polygon fill="url(#SVGID_2_)" points="282.781,113.532 148.622,55.292 117.661,184.958 	"/>
	<linearGradient id="SVGID_3_" gradientUnits="userSpaceOnUse" x1="125.6123" y1="180.9492" x2="188.2846" y2="305.2316">
		<stop  offset="0" style="stop-color:#9E9EA0"/>
		<stop  offset="0.2759" style="stop-color:#9B9B9D"/>
		<stop  offset="0.494" style="stop-color:#919194"/>
		<stop  offset="0.6923" style="stop-color:#808083"/>
		<stop  offset="0.8777" style="stop-color:#69696D"/>
		<stop  offset="1" style="stop-color:#55565A"/>
	</linearGradient>
	<polygon fill="url(#SVGID_3_)" points="117.661,184.958 120.823,326.371 258.881,290.31 	"/>
	<polygon fill="#757578" points="282.781,113.532 308.145,62.412 148.622,55.292 	"/>
	<polygon fill="#6C6D70" points="308.145,62.412 373.654,205.685 282.781,113.532 	"/>
	<polygon fill="#6C6D70" points="373.654,205.685 281.941,336.125 258.881,290.31 	"/>
	<polygon fill="#55565A" points="281.941,336.125 120.823,326.371 258.881,290.31 	"/>
	<polygon fill="#55565A" points="148.622,55.292 55.741,171.314 117.661,184.958 	"/>
	<polygon fill="#656569" points="55.741,171.314 120.823,326.371 117.661,184.958 	"/>
	<polygon opacity="0.7" fill="#151A22" points="265.883,137.879 249.146,264.611 150.505,188.311 	"/>
	<polygon opacity="0.7" fill="#151A22" points="252.525,112.608 160.319,72.889 140.95,156.4 	"/>
	<polygon opacity="0.7" fill="#23262E" points="229.154,283.811 128.944,212.223 131.368,309.228 	"/>
	<polygon opacity="0.7" fill="#23262E" points="356.816,205.368 288.528,136.044 270.504,269.353 	"/>
	<polygon opacity="0.7" fill="#43444B" points="252.649,299.402 267.523,327.869 168.135,321.502 	"/>
	<polygon opacity="0.7" fill="#34363D" points="343.471,236.821 269.491,291.957 284.191,320.697 	"/>
	<polygon opacity="0.7" fill="#34363D" points="308.478,82.43 347.593,166.332 294.109,111.941 	"/>
	<polygon opacity="0.7" fill="#36383F" points="290.575,68.308 274.128,98.395 196.656,64.494 	"/>
	<polygon opacity="0.7" fill="#3B3C43" points="135.453,81.955 113.651,174.379 69.669,165.059 	"/>
	<polygon opacity="0.7" fill="#45464D" points="110.999,190.681 112.918,290.004 66.805,181.32 	"/>
</g>
</svg>
