<?xml version="1.0" encoding="utf-8"?>
<!-- Generator: Adobe Illustrator 16.0.0, SVG Export Plug-In . SVG Version: 6.00 Build 0)  -->
<!DOCTYPE svg PUBLIC "-//W3C//DTD SVG 1.1//EN" "http://www.w3.org/Graphics/SVG/1.1/DTD/svg11.dtd">
<svg version="1.1" id="Layer_1" xmlns="http://www.w3.org/2000/svg" xmlns:xlink="http://www.w3.org/1999/xlink" x="0px" y="0px"
	 width="579px" height="514px" viewBox="0 0 579 514" enable-background="new 0 0 579 514" xml:space="preserve">
<g>
	<g>
		<g>
			<path d="M72.085,415.721h3.425l24.521-32.192l6.986,5.479l-23.699,30.002l27.81,33.563l-6.987,5.891l-28.904-35.208h-3.151
				v33.427h-9.179v-71.374h9.179V415.721z"/>
			<path d="M146.201,385.308h9.178v63.154h37.4v8.22h-46.578V385.308z"/>
			<path d="M226.619,385.308h44.522v8.221h-35.345v21.37h29.18v8.22h-29.18v25.344h35.345v8.22h-44.522V385.308z"/>
			<path d="M307.722,385.308h24.247c11.919,0,21.371,5.617,21.371,19.453c0,8.768-5.891,17.398-14.521,20.001l17.535,28.906
				l-7.945,4.795l-18.22-32.331H316.9v30.55h-9.179V385.308z M328.955,417.912c8.905,0,14.796-5.068,14.796-13.151
				c0-6.438-3.836-11.232-12.056-11.232H316.9v24.384H328.955z"/>
			<path d="M435.95,421.063c0,5.754-0.411,36.852-25.344,36.852c-11.507,0-25.344-8.22-25.344-36.852
				c0-28.494,13.562-36.988,25.344-36.988C421.977,384.075,435.95,392.296,435.95,421.063z M394.852,421.063
				c0,10.411,1.918,28.221,15.755,28.221s15.754-17.81,15.754-28.221c0-10.549-1.917-28.357-15.754-28.357
				S394.852,410.515,394.852,421.063z"/>
			<path d="M477.873,434.078c1.781,8.768,6.027,15.206,15.617,15.206c7.535,0,13.426-4.11,13.426-12.056
				c0-8.768-7.398-10.959-14.385-13.836c-10.412-4.384-20.275-7.124-20.275-20.55c0-12.055,9.727-18.768,20.96-18.768
				c11.919,0,18.905,6.85,21.782,17.946l-8.768,2.603c-1.645-6.986-5.343-11.918-13.151-11.918c-5.891,0-11.645,3.014-11.645,9.452
				c0,6.713,4.11,8.631,9.589,11.097l15.207,6.713c6.438,3.562,9.863,9.315,9.863,16.713c0,13.562-9.452,21.234-22.604,21.234
				c-13.289,0-21.645-8.494-23.837-21.234L477.873,434.078z"/>
		</g>
	</g>
	<polygon opacity="0.7" fill="#45464D" points="380.756,51.04 221.233,43.92 128.353,159.942 193.435,314.999 354.553,324.753 
		446.266,194.313 	"/>
	<g>
		<polygon fill="#656569" points="446.266,194.313 355.393,102.16 331.492,278.938 		"/>
		<linearGradient id="SVGID_1_" gradientUnits="userSpaceOnUse" x1="190.2725" y1="190.5488" x2="355.3926" y2="190.5488">
			<stop  offset="0" style="stop-color:#A3A2A5"/>
			<stop  offset="0.2705" style="stop-color:#9F9EA0"/>
			<stop  offset="0.5607" style="stop-color:#929194"/>
			<stop  offset="0.8592" style="stop-color:#7C7C80"/>
			<stop  offset="1" style="stop-color:#707073"/>
		</linearGradient>
		<polygon fill="url(#SVGID_1_)" points="190.272,173.586 355.393,102.16 331.492,278.938 		"/>
		<linearGradient id="SVGID_2_" gradientUnits="userSpaceOnUse" x1="189.1812" y1="171.2168" x2="306.5035" y2="55.0266">
			<stop  offset="0" style="stop-color:#969598"/>
			<stop  offset="0.3396" style="stop-color:#908F92"/>
			<stop  offset="0.7917" style="stop-color:#7F7F82"/>
			<stop  offset="1" style="stop-color:#757578"/>
		</linearGradient>
		<polygon fill="url(#SVGID_2_)" points="355.393,102.16 221.233,43.92 190.272,173.586 		"/>
		<linearGradient id="SVGID_3_" gradientUnits="userSpaceOnUse" x1="198.2236" y1="169.5771" x2="260.8959" y2="293.8595">
			<stop  offset="0" style="stop-color:#9E9EA0"/>
			<stop  offset="0.2759" style="stop-color:#9B9B9D"/>
			<stop  offset="0.494" style="stop-color:#919194"/>
			<stop  offset="0.6923" style="stop-color:#808083"/>
			<stop  offset="0.8777" style="stop-color:#69696D"/>
			<stop  offset="1" style="stop-color:#55565A"/>
		</linearGradient>
		<polygon fill="url(#SVGID_3_)" points="190.272,173.586 193.435,314.999 331.492,278.938 		"/>
		<polygon fill="#757578" points="355.393,102.16 380.756,51.04 221.233,43.92 		"/>
		<polygon fill="#6C6D70" points="380.756,51.04 446.266,194.313 355.393,102.16 		"/>
		<polygon fill="#6C6D70" points="446.266,194.313 354.553,324.753 331.492,278.938 		"/>
		<polygon fill="#55565A" points="354.553,324.753 193.435,314.999 331.492,278.938 		"/>
		<polygon fill="#55565A" points="221.233,43.92 128.353,159.942 190.272,173.586 		"/>
		<polygon fill="#656569" points="128.353,159.942 193.435,314.999 190.272,173.586 		"/>
		<polygon opacity="0.7" fill="#151A22" points="338.494,126.507 321.758,253.239 223.116,176.938 		"/>
		<polygon opacity="0.7" fill="#151A22" points="325.137,101.236 232.931,61.517 213.562,145.028 		"/>
		<polygon opacity="0.7" fill="#23262E" points="301.766,272.438 201.556,200.851 203.979,297.855 		"/>
		<polygon opacity="0.7" fill="#23262E" points="429.428,193.996 361.14,124.672 343.115,257.98 		"/>
		<polygon opacity="0.7" fill="#43444B" points="325.261,288.03 340.135,316.497 240.746,310.13 		"/>
		<polygon opacity="0.7" fill="#34363D" points="416.082,225.449 342.103,280.585 356.803,309.325 		"/>
		<polygon opacity="0.7" fill="#34363D" points="381.089,71.058 420.204,154.96 366.721,100.569 		"/>
		<polygon opacity="0.7" fill="#36383F" points="363.187,56.936 346.739,87.023 269.268,53.122 		"/>
		<polygon opacity="0.7" fill="#3B3C43" points="208.064,70.583 186.263,163.007 142.28,153.687 		"/>
		<polygon opacity="0.7" fill="#45464D" points="183.61,179.309 185.529,278.632 139.416,169.948 		"/>
	</g>
</g>
</svg>
