<?xml version="1.0" encoding="UTF-8"?>
<svg width="959px" height="360px" viewBox="0 0 959 360" version="1.1" xmlns="http://www.w3.org/2000/svg" xmlns:xlink="http://www.w3.org/1999/xlink">
    <!-- Generator: Sketch 52.5 (67469) - http://www.bohemiancoding.com/sketch -->
    <title>Artboard</title>
    <desc>Created with Sketch.</desc>
    <defs>
        <linearGradient x1="6.05620155e-05%" y1="50.0002263%" x2="100.000182%" y2="50.0002263%" id="linearGradient-1">
            <stop stop-color="#A3A2A5" offset="0%"></stop>
            <stop stop-color="#9F9EA0" offset="27.05%"></stop>
            <stop stop-color="#929194" offset="56.07%"></stop>
            <stop stop-color="#7C7C80" offset="85.92%"></stop>
            <stop stop-color="#707073" offset="100%"></stop>
        </linearGradient>
        <linearGradient x1="-0.661155523%" y1="98.1721359%" x2="70.3916546%" y2="8.56422319%" id="linearGradient-2">
            <stop stop-color="#969598" offset="0%"></stop>
            <stop stop-color="#908F92" offset="33.96%"></stop>
            <stop stop-color="#7F7F82" offset="79.17%"></stop>
            <stop stop-color="#757578" offset="100%"></stop>
        </linearGradient>
        <linearGradient x1="5.63043478%" y1="-2.83437283%" x2="50.0099136%" y2="85.0516215%" id="linearGradient-3">
            <stop stop-color="#9E9EA0" offset="0%"></stop>
            <stop stop-color="#9B9B9D" offset="27.59%"></stop>
            <stop stop-color="#919194" offset="49.4%"></stop>
            <stop stop-color="#808083" offset="69.23%"></stop>
            <stop stop-color="#69696D" offset="87.77%"></stop>
            <stop stop-color="#55565A" offset="100%"></stop>
        </linearGradient>
    </defs>
    <g id="Artboard" stroke="none" stroke-width="1" fill="none" fill-rule="evenodd">
        <g id="kleros-logo" transform="translate(30.000000, 25.000000)">
            <g id="Group-3">
                <g id="Group">
                    <polygon id="Path" fill="#656569" points="346.634156 164.449667 247.730007 64.1270745 221.71778 256.576883"></polygon>
                    <polygon id="Path" fill="url(#linearGradient-1)" points="68.0170775 141.885167 247.730007 64.1270745 221.71778 256.576883"></polygon>
                    <polygon id="Path" fill="url(#linearGradient-2)" points="247.730007 64.1270745 101.71434 0.725042553 68.0170775 141.885167"></polygon>
                    <polygon id="Path" fill="url(#linearGradient-3)" points="68.0170775 141.885167 71.4585278 295.835869 221.71778 256.576883"></polygon>
                    <polygon id="Path" fill="#757578" points="247.730007 64.1270745 275.33562 8.47515957 101.71434 0.725042553"></polygon>
                    <polygon id="Path" fill="#6C6D70" points="275.33562 8.47515957 346.634156 164.449667 247.730007 64.1270745"></polygon>
                    <polygon id="Path" fill="#6C6D70" points="346.634156 164.449667 246.81577 306.453496 221.71778 256.576883"></polygon>
                    <polygon id="Path" fill="#55565A" points="246.81577 306.453496 71.4585278 295.835869 221.71778 256.576883"></polygon>
                    <polygon id="Path" fill="#55565A" points="101.71434 0.725042553 0.624728814 127.032681 68.0170775 141.885167"></polygon>
                    <polygon id="Path" fill="#656569" points="0.624728814 127.032681 71.4585278 295.835869 68.0170775 141.885167"></polygon>
                    <polygon id="Path" fill="#1F2025" opacity="0.7" points="229.3386 90.6324965 211.122423 228.600691 103.763755 145.535418"></polygon>
                    <polygon id="Path" fill="#1F2025" opacity="0.7" points="214.800051 63.1211596 114.445094 19.8809716 93.3643063 110.795429"></polygon>
                    <polygon id="Path" fill="#2C2C31" opacity="0.7" points="189.363575 249.500642 80.2972433 171.566188 82.9354709 277.172011"></polygon>
                    <polygon id="Path" fill="#2C2C31" opacity="0.7" points="328.308052 164.105652 253.984914 88.6348191 234.367994 233.761993"></polygon>
                    <polygon id="Path" fill="#4D4B50" opacity="0.7" points="214.93501 266.476 231.12354 297.465582 122.951855 290.534131"></polygon>
                    <polygon id="Path" fill="#3C3B41" opacity="0.7" points="313.783651 198.347039 233.265467 258.369894 249.26462 289.658855"></polygon>
                    <polygon id="Path" fill="#3C3B41" opacity="0.7" points="275.69805 30.267805 318.269944 121.607926 260.05915 62.3950284"></polygon>
                    <polygon id="Path" fill="#3F3D43" opacity="0.7" points="256.212823 14.8938546 238.312275 47.6481418 153.993476 10.741734"></polygon>
                    <polygon id="Path" fill="#434248" opacity="0.7" points="87.3814939 29.750695 63.6526828 130.368312 15.7836538 120.222071"></polygon>
                    <polygon id="Path" fill="#4F4D53" opacity="0.7" points="60.7663051 148.115525 62.8549019 256.243755 12.66654 137.924649"></polygon>
                </g>
                <g id="Group" transform="translate(405.000000, 113.000000)" fill="#FFFFFF">
                    <polygon id="Path" points="10.6856925 35.075766 14.4133862 35.075766 41.1025847 0.0276879433 48.7059915 5.99241489 22.9114395 38.653078 53.179224 75.1926099 45.5747288 81.6058617 14.1151707 43.2754965 10.6856925 43.2754965 10.6856925 79.6669716 0.695473366 79.6669716 0.695473366 1.96440071 10.6856925 1.96440071 10.6856925 35.075766"></polygon>
                    <polygon id="Path" points="91.3529843 1.96657801 101.343203 1.96657801 101.343203 70.7193369 142.046354 70.7193369 142.046354 79.6691489 91.3529843 79.6691489"></polygon>
                    <polygon id="Path" points="178.877056 1.96657801 227.334897 1.96657801 227.334897 10.9153014 188.867275 10.9153014 188.867275 34.1819823 220.626137 34.1819823 220.626137 43.129617 188.867275 43.129617 188.867275 70.7204255 227.334897 70.7204255 227.334897 79.6702376 178.877056 79.6702376"></polygon>
                    <path d="M267.147754,1.96657801 L293.538737,1.96657801 C306.510023,1.96657801 316.798458,8.08153901 316.798458,23.1441348 C316.798458,32.6883511 310.386824,42.0845106 300.994125,44.918273 L320.078828,76.3868617 L311.431667,81.6069504 L291.600337,46.4086383 L277.136885,46.4086383 L277.136885,79.6680603 L267.147754,79.6680603 L267.147754,1.96657801 Z M290.258367,37.4620922 C299.949282,37.4620922 306.360915,31.9448014 306.360915,23.1441348 C306.360915,16.1353901 302.185898,10.9153014 293.239433,10.9153014 L277.135797,10.9153014 L277.135797,37.4620922 L290.258367,37.4620922 Z" id="Shape" fill-rule="nonzero"></path>
                    <path d="M406.709341,40.8913475 C406.709341,47.1554539 406.262018,81.0103688 379.125496,81.0103688 C366.600446,81.0103688 351.541651,72.062734 351.541651,40.8913475 C351.541651,9.87019504 366.30223,0.624269504 379.125496,0.624269504 C391.500351,0.624269504 406.709341,9.57299291 406.709341,40.8913475 Z M361.979194,40.8913475 C361.979194,52.2263972 364.066702,71.6142092 379.125496,71.6142092 C394.184291,71.6142092 396.271799,52.2263972 396.271799,40.8913475 C396.271799,29.4082411 394.184291,10.0204291 379.125496,10.0204291 C364.066702,10.0204291 361.979194,29.4082411 361.979194,40.8913475 Z" id="Shape" fill-rule="nonzero"></path>
                    <path d="M452.335224,55.0612482 C454.273625,64.6065532 458.895965,71.6142092 469.333507,71.6142092 C477.533345,71.6142092 483.944978,67.1409362 483.944978,58.4905035 C483.944978,48.9451986 475.894248,46.559961 468.289753,43.4279078 C456.958653,38.6541667 446.222895,35.6712589 446.222895,21.0560993 C446.222895,7.93239362 456.809545,0.624269504 469.035292,0.624269504 C482.006577,0.624269504 489.611073,8.08153901 492.742335,20.161227 L483.199439,22.9949894 C481.410146,15.3896631 477.384237,10.0204291 468.886184,10.0204291 C462.474551,10.0204291 456.212025,13.3016277 456.212025,20.3103723 C456.212025,27.6184965 460.684169,29.7065319 466.649568,32.3900603 L483.199439,39.6981844 C490.206415,43.5759645 493.934109,49.8400709 493.934109,57.8928333 C493.934109,72.6571383 483.646763,81.0092801 469.332419,81.0092801 C454.870056,81.0092801 445.773395,71.762266 443.388759,57.8928333 L452.335224,55.0612482 Z" id="Path"></path>
                </g>
            </g>
        </g>
    </g>
</svg>