<svg width="31" height="39" viewBox="0 0 31 39" fill="none" xmlns="http://www.w3.org/2000/svg">
<path d="M23.0758 18.8145V20.938C23.0758 21.4385 22.6607 21.848 22.1534 21.848H9.24013C8.73282 21.848 8.31775 21.4385 8.31775 20.938V18.8145C8.31775 18.3139 8.73282 17.9044 9.24013 17.9044H22.1534C22.6607 17.9044 23.0758 18.3139 23.0758 18.8145ZM22.1534 24.2749H9.24013C8.73282 24.2749 8.31775 24.6844 8.31775 25.1849V27.3084C8.31775 27.8089 8.73282 28.2185 9.24013 28.2185H22.1534C22.6607 28.2185 23.0758 27.8089 23.0758 27.3084V25.1849C23.0758 24.6844 22.6607 24.2749 22.1534 24.2749ZM30.4548 10.0096V35.1956C30.4548 37.2053 28.8022 38.8359 26.7653 38.8359H4.62823C2.59132 38.8359 0.938721 37.2053 0.938721 35.1956V3.64678C0.938721 1.63706 2.59132 0.00653076 4.62823 0.00653076H20.3164C21.2925 0.00653076 22.2303 0.393307 22.9221 1.07585L29.371 7.43871C30.0628 8.11367 30.4548 9.04648 30.4548 10.0096ZM20.6161 3.94255V9.71386H26.4655L20.6161 3.94255ZM26.7653 35.1956V13.3541H18.7714C17.7491 13.3541 16.9266 12.5426 16.9266 11.534V3.64678H4.62823V35.1956H26.7653Z" fill="#4004A3"/>
</svg>
