<svg width="33" height="33" viewBox="0 0 33 33" fill="none" xmlns="http://www.w3.org/2000/svg">
<circle cx="16.5" cy="16.5" r="16.5" fill="#F60C36"/>
<path d="M19 22.5C19 23.8785 17.8785 25 16.5 25C15.1215 25 14 23.8785 14 22.5C14 21.1215 15.1215 20 16.5 20C17.8785 20 19 21.1215 19 22.5ZM14.2894 9.78747L14.7144 18.2875C14.7343 18.6866 15.0638 19 15.4634 19H17.5366C17.9362 19 18.2657 18.6866 18.2856 18.2875L18.7106 9.78747C18.732 9.35906 18.3905 9 17.9616 9H15.0384C14.6095 9 14.268 9.35906 14.2894 9.78747Z" fill="white"/>
</svg>
