<svg width="7" height="10" viewBox="0 0 7 10" fill="none" xmlns="http://www.w3.org/2000/svg">
<path d="M1.23899 6.77203C1.50744 7.95948 2.14759 8.83124 3.59308 8.83124C4.72867 8.83124 5.61661 8.27476 5.61661 7.19863C5.61661 6.01119 4.50167 5.71446 3.44852 5.32483C1.87928 4.73097 0.392499 4.35989 0.392499 2.54175C0.392499 0.909139 1.85863 0 3.55177 0C5.34816 0 6.40131 0.927694 6.83496 2.43042L5.51336 2.78295C5.26557 1.83683 4.70802 1.16889 3.53113 1.16889C2.64318 1.16889 1.77589 1.57708 1.77589 2.44898C1.77589 3.35812 2.39524 3.61787 3.22138 3.95171L5.51336 4.86085C6.48376 5.34325 7 6.12251 7 7.12428C7 8.96098 5.57531 10 3.59292 10C1.59004 10 0.330247 8.84966 0 7.12428L1.23899 6.77203Z" fill="white"/>
</svg>
